<svg width="153" height="145" viewBox="0 0 153 145" fill="none" xmlns="http://www.w3.org/2000/svg">
<path d="M149.826 110.45C146.654 119.328 139.356 126.25 129.576 131.444C119.797 136.637 107.58 140.078 94.6603 142.011C68.81 145.878 40.2737 143.688 23.059 137.537C14.5248 134.487 8.97476 129.194 5.62677 122.413C2.27095 115.616 1.11309 107.293 1.43617 98.1818C2.08257 79.9519 8.64853 58.7303 15.1052 40.6601C21.5501 22.6231 29.2843 10.8569 39.6234 5.10084C49.9436 -0.64465 62.9898 -0.471388 80.2388 5.69191C97.4244 11.8325 118.051 29.0645 132.774 49.2997C140.13 59.4104 145.994 70.2463 149.215 80.7885C152.438 91.3327 153.007 101.548 149.826 110.45Z" stroke="#785B96"/>
</svg>
