<svg width="14" height="209" viewBox="0 0 14 209" fill="none" xmlns="http://www.w3.org/2000/svg">
<path d="M9.412 1.583C9.76667 1.85367 10.0397 2.164 10.231 2.514C10.427 2.86867 10.525 3.25833 10.525 3.683C10.525 4.341 10.3663 4.873 10.049 5.279C9.73167 5.685 9.28367 5.98133 8.705 6.168C8.131 6.35467 7.459 6.448 6.689 6.448C5.947 6.448 5.28433 6.336 4.701 6.112C4.12233 5.888 3.66733 5.559 3.336 5.125C3.00467 4.69567 2.839 4.16367 2.839 3.529C2.839 2.675 3.147 2.00533 3.763 1.52L3 1.436V0.407L13.339 0.407L13.486 1.583L9.412 1.583ZM3.791 3.249C3.791 3.865 4.029 4.33867 4.505 4.67C4.981 5.00133 5.71133 5.167 6.696 5.167C7.34 5.167 7.87433 5.10167 8.299 4.971C8.72833 4.84033 9.048 4.64433 9.258 4.383C9.47267 4.12633 9.58 3.809 9.58 3.431C9.58 3.02033 9.45633 2.65867 9.209 2.346C8.96633 2.038 8.69567 1.78367 8.397 1.583L4.743 1.583C4.45367 1.77433 4.22267 2.01467 4.05 2.304C3.87733 2.598 3.791 2.913 3.791 3.249ZM10.371 12.5325H3.931V14.6115H3V9.08153H3.931V11.3565H9.44V9.15153H10.371V12.5325ZM13.822 11.5945C13.822 11.8559 13.7427 12.0635 13.584 12.2175C13.4253 12.3762 13.2317 12.4555 13.003 12.4555C12.765 12.4555 12.5643 12.3762 12.401 12.2175C12.2423 12.0635 12.163 11.8559 12.163 11.5945C12.163 11.3472 12.2423 11.1442 12.401 10.9855C12.5643 10.8269 12.765 10.7475 13.003 10.7475C13.2317 10.7475 13.4253 10.8269 13.584 10.9855C13.7427 11.1442 13.822 11.3472 13.822 11.5945ZM9.412 18.3721C9.76667 18.6427 10.0397 18.9531 10.231 19.3031C10.427 19.6577 10.525 20.0474 10.525 20.4721C10.525 21.1301 10.3663 21.6621 10.049 22.0681C9.73167 22.4741 9.28367 22.7704 8.705 22.9571C8.131 23.1437 7.459 23.2371 6.689 23.2371C5.947 23.2371 5.28433 23.1251 4.701 22.9011C4.12233 22.6771 3.66733 22.3481 3.336 21.9141C3.00467 21.4847 2.839 20.9527 2.839 20.3181C2.839 19.4641 3.147 18.7944 3.763 18.3091L3 18.2251V17.1961H13.339L13.486 18.3721H9.412ZM3.791 20.0381C3.791 20.6541 4.029 21.1277 4.505 21.4591C4.981 21.7904 5.71133 21.9561 6.696 21.9561C7.34 21.9561 7.87433 21.8907 8.299 21.7601C8.72833 21.6294 9.048 21.4334 9.258 21.1721C9.47267 20.9154 9.58 20.5981 9.58 20.2201C9.58 19.8094 9.45633 19.4477 9.209 19.1351C8.96633 18.8271 8.69567 18.5727 8.397 18.3721H4.743C4.45367 18.5634 4.22267 18.8037 4.05 19.0931C3.87733 19.3871 3.791 19.7021 3.791 20.0381ZM10.371 29.3216H3.931V31.4006H3V25.8706H3.931V28.1456H9.44V25.9406H10.371V29.3216ZM13.822 28.3836C13.822 28.6449 13.7427 28.8526 13.584 29.0066C13.4253 29.1653 13.2317 29.2446 13.003 29.2446C12.765 29.2446 12.5643 29.1653 12.401 29.0066C12.2423 28.8526 12.163 28.6449 12.163 28.3836C12.163 28.1363 12.2423 27.9333 12.401 27.7746C12.5643 27.6159 12.765 27.5366 13.003 27.5366C13.2317 27.5366 13.4253 27.6159 13.584 27.7746C13.7427 27.9333 13.822 28.1363 13.822 28.3836ZM10.371 40.1591L7.053 36.8411L3 40.5441V38.9971L7.025 35.3711L10.371 38.6331L10.371 40.1591ZM13.486 35.2381H3V34.0621H13.339L13.486 35.2381ZM10.525 45.1867C10.525 45.882 10.3663 46.463 10.049 46.9297C9.73633 47.401 9.293 47.7533 8.719 47.9867C8.145 48.2247 7.46833 48.3437 6.689 48.3437C5.93767 48.3437 5.27267 48.2223 4.694 47.9797C4.11533 47.737 3.66033 47.38 3.329 46.9087C3.00233 46.442 2.839 45.8633 2.839 45.1727C2.839 44.482 2.99767 43.901 3.315 43.4297C3.63233 42.9583 4.078 42.6013 4.652 42.3587C5.23067 42.1207 5.905 42.0017 6.675 42.0017C7.43567 42.0017 8.10533 42.123 8.684 42.3657C9.26267 42.6083 9.713 42.9653 10.035 43.4367C10.3617 43.9127 10.525 44.496 10.525 45.1867ZM9.566 45.1867C9.566 44.552 9.33033 44.0713 8.859 43.7447C8.39233 43.4227 7.66433 43.2617 6.675 43.2617C5.70433 43.2617 4.98333 43.4203 4.512 43.7377C4.04067 44.0597 3.805 44.538 3.805 45.1727C3.805 45.8073 4.04067 46.2833 4.512 46.6007C4.98333 46.9227 5.709 47.0837 6.689 47.0837C7.669 47.0837 8.39233 46.925 8.859 46.6077C9.33033 46.2903 9.566 45.8167 9.566 45.1867ZM10.371 56.9202L3 54.2392V52.8742L10.371 50.2142V51.4602L4.071 53.5952L10.371 55.7022V56.9202ZM4.61 64.4467C4.316 64.4467 4.10133 64.4957 3.966 64.5937C3.83067 64.6917 3.73033 64.8434 3.665 65.0487L2.839 64.7617C2.881 64.4444 2.98133 64.1667 3.14 63.9287C3.30333 63.6907 3.54833 63.5181 3.875 63.4107C3.53433 63.1447 3.27533 62.8134 3.098 62.4167C2.92533 62.0201 2.839 61.5814 2.839 61.1007C2.839 60.3634 3.04667 59.7824 3.462 59.3577C3.87733 58.9331 4.428 58.7207 5.114 58.7207C5.87467 58.7207 6.458 59.0171 6.864 59.6097C7.27 60.2024 7.473 61.0587 7.473 62.1787V63.2637H8.089C8.621 63.2637 8.99667 63.1074 9.216 62.7947C9.44 62.4867 9.552 62.0574 9.552 61.5067C9.552 61.2641 9.52167 60.9794 9.461 60.6527C9.405 60.3261 9.30933 59.9714 9.174 59.5887L10.063 59.2807C10.231 59.7334 10.35 60.1581 10.42 60.5547C10.49 60.9514 10.525 61.3294 10.525 61.6887C10.525 62.6081 10.3103 63.2964 9.881 63.7537C9.45633 64.2157 8.87767 64.4467 8.145 64.4467H4.61ZM3.735 61.4017C3.735 61.7657 3.826 62.1134 4.008 62.4447C4.19467 62.7761 4.45133 63.0491 4.778 63.2637H6.675V62.1997C6.675 61.3877 6.535 60.8137 6.255 60.4777C5.975 60.1464 5.59933 59.9807 5.128 59.9807C4.67067 59.9807 4.323 60.0974 4.085 60.3307C3.85167 60.5687 3.735 60.9257 3.735 61.4017ZM10.525 70.3703C10.525 71.0656 10.3663 71.6466 10.049 72.1133C9.73633 72.5846 9.293 72.9369 8.719 73.1703C8.145 73.4083 7.46833 73.5273 6.689 73.5273C5.93767 73.5273 5.27267 73.4059 4.694 73.1633C4.11533 72.9206 3.66033 72.5636 3.329 72.0923C3.00233 71.6256 2.839 71.0469 2.839 70.3563C2.839 69.6656 2.99767 69.0846 3.315 68.6133C3.63233 68.1419 4.078 67.7849 4.652 67.5423C5.23067 67.3043 5.905 67.1852 6.675 67.1852C7.43567 67.1852 8.10533 67.3066 8.684 67.5493C9.26267 67.7919 9.713 68.1489 10.035 68.6203C10.3617 69.0963 10.525 69.6796 10.525 70.3703ZM9.566 70.3703C9.566 69.7356 9.33033 69.2549 8.859 68.9283C8.39233 68.6063 7.66433 68.4453 6.675 68.4453C5.70433 68.4453 4.98333 68.6039 4.512 68.9213C4.04067 69.2433 3.805 69.7216 3.805 70.3563C3.805 70.9909 4.04067 71.4669 4.512 71.7843C4.98333 72.1063 5.709 72.2673 6.689 72.2673C7.669 72.2673 8.39233 72.1086 8.859 71.7913C9.33033 71.4739 9.566 71.0003 9.566 70.3703ZM13.339 78.8278H4.82C4.456 78.8278 4.197 78.9398 4.043 79.1638C3.89367 79.3924 3.819 79.6864 3.819 80.0458C3.819 80.2698 3.84233 80.4821 3.889 80.6828C3.93567 80.8834 3.99867 81.0841 4.078 81.2848L3.217 81.5998C3.119 81.3991 3.03267 81.1494 2.958 80.8508C2.87867 80.5568 2.839 80.2231 2.839 79.8498C2.839 79.1964 3.01867 78.6668 3.378 78.2608C3.742 77.8548 4.24367 77.6518 4.883 77.6518H12.408V75.3908H13.339V78.8278ZM11.155 90.3443L10.049 90.7083C9.951 90.3956 9.89033 90.062 9.867 89.7073C9.84367 89.3526 9.832 88.9676 9.832 88.5523C9.636 88.977 9.38167 89.2966 9.069 89.5113C8.761 89.726 8.397 89.8333 7.977 89.8333C7.49167 89.8333 7.06 89.7236 6.682 89.5043C6.304 89.285 6.00767 88.9676 5.793 88.5523C5.57833 88.1416 5.471 87.6446 5.471 87.0613C5.471 86.814 5.48267 86.6063 5.506 86.4383C5.52933 86.275 5.56433 86.1163 5.611 85.9623C5.53633 85.8503 5.43367 85.757 5.303 85.6823C5.17233 85.6123 5.037 85.5773 4.897 85.5773C4.71967 85.5773 4.57267 85.6473 4.456 85.7873C4.33933 85.9273 4.281 86.1863 4.281 86.5643V87.8943C4.281 88.389 4.19233 88.8323 4.015 89.2243C3.83767 89.621 3.59967 89.9313 3.301 90.1553C3.00233 90.384 2.66167 90.4983 2.279 90.4983C1.55567 90.4983 1.00033 90.1903 0.613 89.5743C0.225667 88.963 0.0319998 88.0973 0.0319998 86.9773C0.0319998 86.1933 0.113666 85.575 0.277 85.1223C0.435667 84.6696 0.680667 84.3453 1.012 84.1493C1.33867 83.958 1.75167 83.8623 2.251 83.8623V84.9263C1.96633 84.9263 1.73067 84.9823 1.544 85.0943C1.35733 85.2063 1.21967 85.4093 1.131 85.7033C1.03767 85.9973 0.991 86.4196 0.991 86.9703C0.991 87.5116 1.03767 87.9526 1.131 88.2933C1.21967 88.6386 1.355 88.893 1.537 89.0563C1.71433 89.2243 1.936 89.3083 2.202 89.3083C2.552 89.3083 2.81567 89.1496 2.993 88.8323C3.17033 88.515 3.259 88.1183 3.259 87.6423V86.3263C3.259 85.6916 3.399 85.2226 3.679 84.9193C3.959 84.6206 4.281 84.4713 4.645 84.4713C4.883 84.4713 5.114 84.539 5.338 84.6743C5.562 84.8143 5.76033 85.0173 5.933 85.2833C6.157 84.8586 6.43467 84.546 6.766 84.3453C7.09733 84.1446 7.49867 84.0443 7.97 84.0443C8.46933 84.0443 8.91033 84.168 9.293 84.4153C9.68033 84.6626 9.98367 85.008 10.203 85.4513C10.4223 85.8946 10.532 86.4056 10.532 86.9843C10.5367 87.605 10.5623 88.109 10.609 88.4963C10.6603 88.8836 10.7327 89.215 10.826 89.4903C10.9193 89.7703 11.029 90.055 11.155 90.3443ZM9.671 86.9843C9.671 86.3916 9.51 85.953 9.188 85.6683C8.87067 85.3883 8.46467 85.2483 7.97 85.2483C7.47067 85.2483 7.06 85.393 6.738 85.6823C6.416 85.9716 6.255 86.415 6.255 87.0123C6.255 87.535 6.40667 87.9316 6.71 88.2023C7.01333 88.4776 7.43567 88.6153 7.977 88.6153C8.53233 88.6153 8.95233 88.4776 9.237 88.2023C9.52633 87.9316 9.671 87.5256 9.671 86.9843ZM4.61 98.0248C4.316 98.0248 4.10133 98.0738 3.966 98.1718C3.83067 98.2698 3.73033 98.4215 3.665 98.6268L2.839 98.3398C2.881 98.0225 2.98133 97.7448 3.14 97.5068C3.30333 97.2688 3.54833 97.0962 3.875 96.9888C3.53433 96.7228 3.27533 96.3915 3.098 95.9948C2.92533 95.5982 2.839 95.1595 2.839 94.6788C2.839 93.9415 3.04667 93.3605 3.462 92.9358C3.87733 92.5112 4.428 92.2988 5.114 92.2988C5.87467 92.2988 6.458 92.5952 6.864 93.1878C7.27 93.7805 7.473 94.6368 7.473 95.7568V96.8418H8.089C8.621 96.8418 8.99667 96.6855 9.216 96.3728C9.44 96.0648 9.552 95.6355 9.552 95.0848C9.552 94.8422 9.52167 94.5575 9.461 94.2308C9.405 93.9042 9.30933 93.5495 9.174 93.1668L10.063 92.8588C10.231 93.3115 10.35 93.7362 10.42 94.1328C10.49 94.5295 10.525 94.9075 10.525 95.2668C10.525 96.1862 10.3103 96.8745 9.881 97.3318C9.45633 97.7938 8.87767 98.0248 8.145 98.0248H4.61ZM3.735 94.9798C3.735 95.3438 3.826 95.6915 4.008 96.0228C4.19467 96.3542 4.45133 96.6272 4.778 96.8418H6.675V95.7778C6.675 94.9658 6.535 94.3918 6.255 94.0558C5.975 93.7245 5.59933 93.5588 5.128 93.5588C4.67067 93.5588 4.323 93.6755 4.085 93.9088C3.85167 94.1468 3.735 94.5038 3.735 94.9798ZM2.867 102.961L3.203 101.862L11.659 105.621L11.659 101.099H12.639L12.639 106.804H11.736L2.867 102.961ZM2.867 111.356L3.203 110.257L11.659 114.016V109.494H12.639V115.199H11.736L2.867 111.356ZM2.867 119.75L3.203 118.651L11.659 122.41V117.888H12.639V123.593H11.736L2.867 119.75ZM12.793 128.887C12.793 129.61 12.6833 130.219 12.464 130.714C12.2493 131.213 11.953 131.619 11.575 131.932C11.197 132.249 10.7583 132.492 10.259 132.66C9.76433 132.833 9.237 132.952 8.677 133.017C8.12167 133.082 7.557 133.115 6.983 133.115C5.807 133.115 4.82933 133.059 4.05 132.947C3.27533 132.84 2.69667 132.639 2.314 132.345C1.92667 132.051 1.733 131.622 1.733 131.057C1.733 130.768 1.803 130.518 1.943 130.308C2.083 130.098 2.26033 129.925 2.475 129.79C2.685 129.655 2.902 129.557 3.126 129.496C3.35467 129.435 3.553 129.407 3.721 129.412V129.356C3.50633 129.272 3.294 129.151 3.084 128.992C2.87867 128.838 2.70833 128.635 2.573 128.383C2.433 128.131 2.363 127.818 2.363 127.445C2.363 126.936 2.50067 126.526 2.776 126.213C3.05133 125.905 3.43167 125.681 3.917 125.541C4.40233 125.401 4.953 125.331 5.569 125.331C6.787 125.331 7.69233 125.574 8.285 126.059C8.88233 126.544 9.181 127.216 9.181 128.075C9.181 128.402 9.146 128.714 9.076 129.013C9.006 129.312 8.866 129.657 8.656 130.049H4.519C4.015 130.049 3.63 130.093 3.364 130.182C3.10267 130.271 2.923 130.39 2.825 130.539C2.727 130.688 2.678 130.854 2.678 131.036C2.678 131.255 2.78767 131.426 3.007 131.547C3.22633 131.668 3.532 131.755 3.924 131.806C4.316 131.857 4.771 131.888 5.289 131.897C5.81167 131.906 6.37167 131.911 6.969 131.911C7.63633 131.911 8.25933 131.874 8.838 131.799C9.42133 131.724 9.93233 131.582 10.371 131.372C10.8097 131.162 11.1527 130.859 11.4 130.462C11.6473 130.065 11.771 129.545 11.771 128.901C11.771 128.448 11.687 127.954 11.519 127.417C11.3557 126.885 11.0103 126.32 10.483 125.723L11.267 125.051C11.813 125.676 12.2027 126.316 12.436 126.969C12.674 127.627 12.793 128.266 12.793 128.887ZM8.313 128.131C8.313 127.492 8.082 127.055 7.62 126.822C7.158 126.589 6.47433 126.472 5.569 126.472C5.11167 126.472 4.708 126.505 4.358 126.57C4.01267 126.64 3.73967 126.757 3.539 126.92C3.343 127.083 3.245 127.305 3.245 127.585C3.245 127.912 3.31967 128.168 3.469 128.355C3.61833 128.546 3.78867 128.691 3.98 128.789C4.176 128.892 4.34167 128.971 4.477 129.027H8.103C8.17767 128.882 8.23133 128.738 8.264 128.593C8.29667 128.453 8.313 128.299 8.313 128.131ZM11.155 140.712L10.049 141.076C9.951 140.763 9.89033 140.429 9.867 140.075C9.84367 139.72 9.832 139.335 9.832 138.92C9.636 139.344 9.38167 139.664 9.069 139.879C8.761 140.093 8.397 140.201 7.977 140.201C7.49167 140.201 7.06 140.091 6.682 139.872C6.304 139.652 6.00767 139.335 5.793 138.92C5.57833 138.509 5.471 138.012 5.471 137.428C5.471 137.181 5.48267 136.974 5.506 136.806C5.52933 136.642 5.56433 136.484 5.611 136.33C5.53633 136.218 5.43367 136.124 5.303 136.05C5.17233 135.98 5.037 135.945 4.897 135.945C4.71967 135.945 4.57267 136.015 4.456 136.155C4.33933 136.295 4.281 136.554 4.281 136.932V138.262C4.281 138.756 4.19233 139.2 4.015 139.592C3.83767 139.988 3.59967 140.299 3.301 140.523C3.00233 140.751 2.66167 140.865 2.279 140.865C1.55567 140.865 1.00033 140.558 0.613 139.942C0.225667 139.33 0.0319998 138.465 0.0319998 137.345C0.0319998 136.561 0.113666 135.942 0.277 135.49C0.435667 135.037 0.680667 134.713 1.012 134.517C1.33867 134.325 1.75167 134.23 2.251 134.23V135.294C1.96633 135.294 1.73067 135.35 1.544 135.462C1.35733 135.574 1.21967 135.777 1.131 136.071C1.03767 136.365 0.991 136.787 0.991 137.338C0.991 137.879 1.03767 138.32 1.131 138.661C1.21967 139.006 1.355 139.26 1.537 139.424C1.71433 139.592 1.936 139.676 2.202 139.676C2.552 139.676 2.81567 139.517 2.993 139.2C3.17033 138.882 3.259 138.486 3.259 138.01V136.694C3.259 136.059 3.399 135.59 3.679 135.287C3.959 134.988 4.281 134.839 4.645 134.839C4.883 134.839 5.114 134.906 5.338 135.042C5.562 135.182 5.76033 135.385 5.933 135.651C6.157 135.226 6.43467 134.913 6.766 134.713C7.09733 134.512 7.49867 134.412 7.97 134.412C8.46933 134.412 8.91033 134.535 9.293 134.783C9.68033 135.03 9.98367 135.375 10.203 135.819C10.4223 136.262 10.532 136.773 10.532 137.352C10.5367 137.972 10.5623 138.476 10.609 138.864C10.6603 139.251 10.7327 139.582 10.826 139.858C10.9193 140.138 11.029 140.422 11.155 140.712ZM9.671 137.352C9.671 136.759 9.51 136.32 9.188 136.036C8.87067 135.756 8.46467 135.616 7.97 135.616C7.47067 135.616 7.06 135.76 6.738 136.05C6.416 136.339 6.255 136.782 6.255 137.38C6.255 137.902 6.40667 138.299 6.71 138.57C7.01333 138.845 7.43567 138.983 7.977 138.983C8.53233 138.983 8.95233 138.845 9.237 138.57C9.52633 138.299 9.671 137.893 9.671 137.352ZM10.525 147.972C10.525 148.21 10.4737 148.436 10.371 148.651C10.2683 148.87 10.07 149.05 9.776 149.19C9.482 149.33 9.05267 149.4 8.488 149.4H3V148.308H8.299C8.761 148.308 9.09467 148.28 9.3 148.224C9.50533 148.168 9.608 148.007 9.608 147.741C9.608 147.522 9.538 147.302 9.398 147.083C9.26267 146.868 9.03867 146.658 8.726 146.453H3V145.354H8.299C8.761 145.354 9.09467 145.326 9.3 145.27C9.50533 145.214 9.608 145.053 9.608 144.787C9.608 144.558 9.538 144.337 9.398 144.122C9.26267 143.912 9.03867 143.704 8.726 143.499H3L3 142.414H10.371V143.338L9.517 143.408C9.80167 143.609 10.0397 143.833 10.231 144.08C10.427 144.332 10.525 144.642 10.525 145.011C10.525 145.291 10.4573 145.555 10.322 145.802C10.1913 146.049 9.93467 146.231 9.552 146.348C9.84133 146.549 10.0747 146.775 10.252 147.027C10.434 147.279 10.525 147.594 10.525 147.972ZM4.61 156.787C4.316 156.787 4.10133 156.836 3.966 156.934C3.83067 157.032 3.73033 157.183 3.665 157.389L2.839 157.102C2.881 156.784 2.98133 156.507 3.14 156.269C3.30333 156.031 3.54833 155.858 3.875 155.751C3.53433 155.485 3.27533 155.153 3.098 154.757C2.92533 154.36 2.839 153.921 2.839 153.441C2.839 152.703 3.04667 152.122 3.462 151.698C3.87733 151.273 4.428 151.061 5.114 151.061C5.87467 151.061 6.458 151.357 6.864 151.95C7.27 152.542 7.473 153.399 7.473 154.519V155.604H8.089C8.621 155.604 8.99667 155.447 9.216 155.135C9.44 154.827 9.552 154.397 9.552 153.847C9.552 153.604 9.52167 153.319 9.461 152.993C9.405 152.666 9.30933 152.311 9.174 151.929L10.063 151.621C10.231 152.073 10.35 152.498 10.42 152.895C10.49 153.291 10.525 153.669 10.525 154.029C10.525 154.948 10.3103 155.636 9.881 156.094C9.45633 156.556 8.87767 156.787 8.145 156.787H4.61ZM3.735 153.742C3.735 154.106 3.826 154.453 4.008 154.785C4.19467 155.116 4.45133 155.389 4.778 155.604H6.675V154.54C6.675 153.728 6.535 153.154 6.255 152.818C5.975 152.486 5.59933 152.321 5.128 152.321C4.67067 152.321 4.323 152.437 4.085 152.671C3.85167 152.909 3.735 153.266 3.735 153.742ZM10.371 163.634H3.931V165.713H3V160.183H3.931V162.458H9.44V160.253H10.371V163.634ZM13.822 162.696C13.822 162.957 13.7427 163.165 13.584 163.319C13.4253 163.478 13.2317 163.557 13.003 163.557C12.765 163.557 12.5643 163.478 12.401 163.319C12.2423 163.165 12.163 162.957 12.163 162.696C12.163 162.449 12.2423 162.246 12.401 162.087C12.5643 161.928 12.765 161.849 13.003 161.849C13.2317 161.849 13.4253 161.928 13.584 162.087C13.7427 162.246 13.822 162.449 13.822 162.696ZM13.339 171.168H4.82C4.456 171.168 4.197 171.28 4.043 171.504C3.89367 171.732 3.819 172.026 3.819 172.386C3.819 172.61 3.84233 172.822 3.889 173.023C3.93567 173.223 3.99867 173.424 4.078 173.625L3.217 173.94C3.119 173.739 3.03267 173.489 2.958 173.191C2.87867 172.897 2.839 172.563 2.839 172.19C2.839 171.536 3.01867 171.007 3.378 170.601C3.742 170.195 4.24367 169.992 4.883 169.992H12.408V167.731H13.339L13.339 171.168ZM4.078 178.246C4.30667 178.246 4.512 178.3 4.694 178.407C4.88067 178.514 5.02767 178.659 5.135 178.841C5.247 179.028 5.303 179.238 5.303 179.471C5.303 179.709 5.247 179.921 5.135 180.108C5.02767 180.295 4.88067 180.442 4.694 180.549C4.512 180.656 4.30667 180.71 4.078 180.71C3.84933 180.71 3.63933 180.656 3.448 180.549C3.26133 180.442 3.112 180.295 3 180.108C2.89267 179.921 2.839 179.709 2.839 179.471C2.839 179.238 2.89267 179.028 3 178.841C3.112 178.659 3.26133 178.514 3.448 178.407C3.63933 178.3 3.84933 178.246 4.078 178.246ZM3.854 188.419C3.854 188.787 3.91467 189.13 4.036 189.448C4.15733 189.77 4.31133 190.066 4.498 190.337L3.728 190.911C3.45267 190.589 3.23567 190.201 3.077 189.749C2.91833 189.296 2.839 188.853 2.839 188.419C2.839 187.686 2.99533 187.061 3.308 186.543C3.62533 186.029 4.06867 185.637 4.638 185.367C5.212 185.096 5.884 184.961 6.654 184.961C7.39133 184.961 8.05167 185.096 8.635 185.367C9.223 185.642 9.685 186.036 10.021 186.55C10.357 187.068 10.525 187.695 10.525 188.433C10.525 188.904 10.4527 189.345 10.308 189.756C10.168 190.171 9.95567 190.551 9.671 190.897L8.887 190.323C9.10633 190.01 9.26967 189.695 9.377 189.378C9.489 189.065 9.545 188.745 9.545 188.419C9.545 187.784 9.307 187.261 8.831 186.851C8.355 186.44 7.62933 186.235 6.654 186.235C6.00067 186.235 5.46633 186.328 5.051 186.515C4.64033 186.706 4.337 186.965 4.141 187.292C3.94967 187.623 3.854 187.999 3.854 188.419ZM10.525 196.288C10.525 196.984 10.3663 197.565 10.049 198.031C9.73633 198.503 9.293 198.855 8.719 199.088C8.145 199.326 7.46833 199.445 6.689 199.445C5.93767 199.445 5.27267 199.324 4.694 199.081C4.11533 198.839 3.66033 198.482 3.329 198.01C3.00233 197.544 2.839 196.965 2.839 196.274C2.839 195.584 2.99767 195.003 3.315 194.531C3.63233 194.06 4.078 193.703 4.652 193.46C5.23067 193.222 5.905 193.103 6.675 193.103C7.43567 193.103 8.10533 193.225 8.684 193.467C9.26267 193.71 9.713 194.067 10.035 194.538C10.3617 195.014 10.525 195.598 10.525 196.288ZM9.566 196.288C9.566 195.654 9.33033 195.173 8.859 194.846C8.39233 194.524 7.66433 194.363 6.675 194.363C5.70433 194.363 4.98333 194.522 4.512 194.839C4.04067 195.161 3.805 195.64 3.805 196.274C3.805 196.909 4.04067 197.385 4.512 197.702C4.98333 198.024 5.709 198.185 6.689 198.185C7.669 198.185 8.39233 198.027 8.859 197.709C9.33033 197.392 9.566 196.918 9.566 196.288ZM10.525 206.734C10.525 206.972 10.4737 207.198 10.371 207.413C10.2683 207.632 10.07 207.812 9.776 207.952C9.482 208.092 9.05267 208.162 8.488 208.162H3V207.07H8.299C8.761 207.07 9.09467 207.042 9.3 206.986C9.50533 206.93 9.608 206.769 9.608 206.503C9.608 206.283 9.538 206.064 9.398 205.845C9.26267 205.63 9.03867 205.42 8.726 205.215H3V204.116H8.299C8.761 204.116 9.09467 204.088 9.3 204.032C9.50533 203.976 9.608 203.815 9.608 203.549C9.608 203.32 9.538 203.098 9.398 202.884C9.26267 202.674 9.03867 202.466 8.726 202.261H3V201.176H10.371V202.1L9.517 202.17C9.80167 202.37 10.0397 202.594 10.231 202.842C10.427 203.094 10.525 203.404 10.525 203.773C10.525 204.053 10.4573 204.316 10.322 204.564C10.1913 204.811 9.93467 204.993 9.552 205.11C9.84133 205.31 10.0747 205.537 10.252 205.789C10.434 206.041 10.525 206.356 10.525 206.734Z" fill="#C3AFFF"/>
</svg>
