<svg width="758" height="720" viewBox="0 0 758 720" fill="none" xmlns="http://www.w3.org/2000/svg">
<path d="M756.791 374.108C757.081 421.716 734.338 466.998 697.118 508.182C659.899 549.365 608.235 586.413 550.775 617.54C435.846 679.799 297.843 718.307 206.122 718.868C160.339 719.147 124.742 703.645 97.0589 677.264C69.3635 650.871 49.5661 613.566 35.4511 570.213C7.21878 483.499 1.76806 372.745 1.18412 277.194C0.600397 181.678 16.7916 112.837 55.9637 67.7289C95.1219 22.6371 157.344 1.15237 249.102 0.591612C340.792 0.0312682 467.45 45.7074 571.345 115.429C623.286 150.284 669.511 191.133 702.819 235.187C736.129 279.243 756.499 326.474 756.791 374.108Z" stroke="#F4F4F4"/>
</svg>
