<svg width="104" height="100" viewBox="0 0 104 100" fill="none" xmlns="http://www.w3.org/2000/svg">
<path d="M4.12144 77.6795C1.12835 72.0441 0.834568 65.3131 2.4456 58.1666C4.05659 51.0203 7.56453 43.4982 12.1171 36.3292C21.2289 21.9807 34.4551 9.15413 44.785 3.66762C49.8757 0.963781 54.7932 0.730998 59.5138 2.24545C64.2532 3.76597 68.8201 7.05724 73.1558 11.4466C81.8305 20.2287 89.4597 33.2806 95.5936 44.8293C101.713 56.3506 104.18 65.5485 102.613 73.199C101.051 80.8188 95.4553 87.042 85.0949 92.5447C74.7941 98.0158 57.5658 100.027 41.3548 97.7701C25.1241 95.5108 10.1383 89.0079 4.12144 77.6795Z" stroke="#785B96"/>
</svg>
