<svg width="193" height="195" viewBox="0 0 193 195" fill="none" xmlns="http://www.w3.org/2000/svg">
<path d="M180.068 176.88C172.428 186.083 160.643 191.086 146.619 192.909C132.597 194.733 116.389 193.37 99.9843 189.894C67.1653 182.938 33.6888 167.55 15.5473 152.491C6.5348 145.009 2.0887 136.176 0.945968 126.552C-0.198752 116.911 1.968 106.441 6.25262 95.7054C14.8248 74.2267 31.8114 51.8341 47.3092 33.1648C62.7836 14.5239 77.1534 3.91692 92.1192 1.66817C107.066 -0.577803 122.756 5.49428 140.926 20.5776C159.044 35.618 176.554 65.4344 185.658 96.1784C190.208 111.542 192.649 127.109 192.028 141.146C191.407 155.185 187.725 167.656 180.068 176.88Z" stroke="#785B96"/>
</svg>
