<svg width="249" height="248" viewBox="0 0 249 248" fill="none" xmlns="http://www.w3.org/2000/svg">
<path d="M177.467 177.263C171.243 184.119 161.984 187.679 151.033 188.714C140.085 189.749 127.543 188.249 114.905 185.083C89.6082 178.746 64.1793 165.802 50.7199 153.583C44.1052 147.578 41.0711 140.681 40.5909 133.264C40.1084 125.813 42.2013 117.769 45.9778 109.521C53.5366 93.013 67.6969 75.9871 80.5943 61.7802C93.4442 47.6255 104.998 39.8419 116.57 38.5163C128.099 37.1958 139.941 42.2575 153.454 54.5252C166.868 66.7023 179.263 90.4276 185.077 114.704C187.98 126.825 189.226 139.024 188.161 149.926C187.096 160.833 183.726 170.369 177.467 177.263Z" fill="#785B96" stroke="#785B96" stroke-width="2"/>
<path d="M127.954 87.3349C134.154 87.2316 139.396 88.5243 143.681 91.2133C147.967 93.9022 151.231 97.7083 153.473 102.632C155.755 107.554 156.953 113.375 157.065 120.094C157.176 126.773 156.154 132.651 153.998 137.728C151.882 142.764 148.707 146.717 144.475 149.588C140.281 152.418 135.125 153.885 129.006 153.987C122.887 154.089 117.665 152.836 113.341 150.227C109.056 147.578 105.752 143.773 103.429 138.811C101.146 133.848 99.9479 127.967 99.8346 121.168C99.7246 114.569 100.728 108.752 102.844 103.716C105 98.6791 108.195 94.7253 112.428 91.8544C116.66 88.9434 121.835 87.4369 127.954 87.3349ZM128.129 97.7735C123.289 97.8541 119.681 99.7746 117.303 103.535C114.925 107.255 113.801 113.054 113.933 120.933C114.063 128.772 115.359 134.531 117.821 138.211C120.323 141.89 123.993 143.689 128.833 143.608C133.672 143.527 137.26 141.607 139.598 137.848C141.976 134.088 143.099 128.248 142.967 120.329C142.837 112.53 141.541 106.811 139.08 103.172C136.618 99.4922 132.968 97.6928 128.129 97.7735Z" fill="#F3F0F0"/>
</svg>
